<mxfile host="65bd71144e">
    <diagram id="4tHZ274CC7kfIac-ka3-" name="Page-1">
        <mxGraphModel dx="735" dy="523" grid="0" gridSize="10" guides="1" tooltips="1" connect="1" arrows="1" fold="1" page="1" pageScale="1" pageWidth="1100" pageHeight="850" background="#ffffff" math="0" shadow="0">
            <root>
                <mxCell id="0"/>
                <mxCell id="1" parent="0"/>
                <mxCell id="14" value="" style="rounded=1;whiteSpace=wrap;html=1;fillColor=#e1d5e7;strokeColor=#9673a6;" vertex="1" parent="1">
                    <mxGeometry x="70" y="35" width="270" height="440" as="geometry"/>
                </mxCell>
                <mxCell id="15" value="Bluetooth classic" style="text;html=1;align=center;verticalAlign=middle;whiteSpace=wrap;rounded=0;fontStyle=1;fontSize=13;" vertex="1" parent="1">
                    <mxGeometry x="90" y="55" width="110" height="20" as="geometry"/>
                </mxCell>
                <mxCell id="16" value="Application" style="rounded=1;whiteSpace=wrap;html=1;fillColor=#fff2cc;strokeColor=#d6b656;" vertex="1" parent="1">
                    <mxGeometry x="110" y="95" width="190" height="40" as="geometry"/>
                </mxCell>
                <mxCell id="17" value="" style="rounded=1;whiteSpace=wrap;html=1;fillColor=#ffe6cc;strokeColor=#d79b00;" vertex="1" parent="1">
                    <mxGeometry x="110" y="155" width="190" height="160" as="geometry"/>
                </mxCell>
                <mxCell id="18" value="" style="rounded=1;whiteSpace=wrap;html=1;fillColor=#dae8fc;strokeColor=#6c8ebf;" vertex="1" parent="1">
                    <mxGeometry x="115" y="345" width="180" height="110" as="geometry"/>
                </mxCell>
                <mxCell id="19" value="Host" style="text;html=1;align=center;verticalAlign=middle;whiteSpace=wrap;rounded=0;fontStyle=1" vertex="1" parent="1">
                    <mxGeometry x="110" y="155" width="60" height="30" as="geometry"/>
                </mxCell>
                <mxCell id="20" value="SPP" style="rounded=1;whiteSpace=wrap;html=1;fillColor=#f0a30a;fontColor=#000000;strokeColor=#BD7000;" vertex="1" parent="1">
                    <mxGeometry x="130" y="185" width="150" height="30" as="geometry"/>
                </mxCell>
                <mxCell id="21" value="RFCOMM" style="rounded=1;whiteSpace=wrap;html=1;fillColor=#f0a30a;fontColor=#000000;strokeColor=#BD7000;" vertex="1" parent="1">
                    <mxGeometry x="130" y="220" width="150" height="30" as="geometry"/>
                </mxCell>
                <mxCell id="22" value="L2CAP" style="rounded=1;whiteSpace=wrap;html=1;fillColor=#f0a30a;fontColor=#000000;strokeColor=#BD7000;" vertex="1" parent="1">
                    <mxGeometry x="130" y="255" width="150" height="30" as="geometry"/>
                </mxCell>
                <mxCell id="23" value="HCI" style="rounded=1;whiteSpace=wrap;html=1;fillColor=#f8cecc;strokeColor=#b85450;" vertex="1" parent="1">
                    <mxGeometry x="145" y="305" width="120" height="50" as="geometry"/>
                </mxCell>
                <mxCell id="25" value="Controller" style="text;html=1;align=center;verticalAlign=middle;whiteSpace=wrap;rounded=0;fontStyle=1" vertex="1" parent="1">
                    <mxGeometry x="130" y="425" width="60" height="30" as="geometry"/>
                </mxCell>
                <mxCell id="27" value="Link Manager" style="rounded=1;whiteSpace=wrap;html=1;fillColor=#1ba1e2;fontColor=#ffffff;strokeColor=#006EAF;" vertex="1" parent="1">
                    <mxGeometry x="130" y="365" width="150" height="30" as="geometry"/>
                </mxCell>
                <mxCell id="28" value="PHY" style="rounded=1;whiteSpace=wrap;html=1;fillColor=#1ba1e2;fontColor=#ffffff;strokeColor=#006EAF;" vertex="1" parent="1">
                    <mxGeometry x="130" y="400" width="150" height="30" as="geometry"/>
                </mxCell>
                <mxCell id="29" value="" style="rounded=1;whiteSpace=wrap;html=1;fillColor=#e1d5e7;strokeColor=#9673a6;" vertex="1" parent="1">
                    <mxGeometry x="390" y="35" width="270" height="465" as="geometry"/>
                </mxCell>
                <mxCell id="30" value="Bluetooth low energy" style="text;html=1;align=center;verticalAlign=middle;whiteSpace=wrap;rounded=0;fontStyle=1;fontSize=13;" vertex="1" parent="1">
                    <mxGeometry x="410" y="50" width="150" height="20" as="geometry"/>
                </mxCell>
                <mxCell id="31" value="Application" style="rounded=1;whiteSpace=wrap;html=1;fillColor=#fff2cc;strokeColor=#d6b656;" vertex="1" parent="1">
                    <mxGeometry x="430" y="80" width="190" height="40" as="geometry"/>
                </mxCell>
                <mxCell id="32" value="" style="rounded=1;whiteSpace=wrap;html=1;fillColor=#ffe6cc;strokeColor=#d79b00;" vertex="1" parent="1">
                    <mxGeometry x="430" y="130" width="190" height="200" as="geometry"/>
                </mxCell>
                <mxCell id="33" value="" style="rounded=1;whiteSpace=wrap;html=1;fillColor=#dae8fc;strokeColor=#6c8ebf;" vertex="1" parent="1">
                    <mxGeometry x="435" y="360" width="180" height="110" as="geometry"/>
                </mxCell>
                <mxCell id="34" value="Host" style="text;html=1;align=center;verticalAlign=middle;whiteSpace=wrap;rounded=0;fontStyle=1" vertex="1" parent="1">
                    <mxGeometry x="430" y="130" width="60" height="30" as="geometry"/>
                </mxCell>
                <mxCell id="35" value="GAP" style="rounded=1;whiteSpace=wrap;html=1;fillColor=#f0a30a;fontColor=#000000;strokeColor=#BD7000;" vertex="1" parent="1">
                    <mxGeometry x="450" y="160" width="150" height="30" as="geometry"/>
                </mxCell>
                <mxCell id="36" value="GATT" style="rounded=1;whiteSpace=wrap;html=1;fillColor=#f0a30a;fontColor=#000000;strokeColor=#BD7000;" vertex="1" parent="1">
                    <mxGeometry x="450" y="200" width="60" height="30" as="geometry"/>
                </mxCell>
                <mxCell id="37" value="ATT" style="rounded=1;whiteSpace=wrap;html=1;fillColor=#f0a30a;fontColor=#000000;strokeColor=#BD7000;" vertex="1" parent="1">
                    <mxGeometry x="450" y="240" width="60" height="30" as="geometry"/>
                </mxCell>
                <mxCell id="38" value="HCI" style="rounded=1;whiteSpace=wrap;html=1;fillColor=#f8cecc;strokeColor=#b85450;" vertex="1" parent="1">
                    <mxGeometry x="465" y="320" width="120" height="50" as="geometry"/>
                </mxCell>
                <mxCell id="39" value="Controller" style="text;html=1;align=center;verticalAlign=middle;whiteSpace=wrap;rounded=0;fontStyle=1" vertex="1" parent="1">
                    <mxGeometry x="450" y="440" width="60" height="30" as="geometry"/>
                </mxCell>
                <mxCell id="40" value="Link Manager" style="rounded=1;whiteSpace=wrap;html=1;fillColor=#1ba1e2;fontColor=#ffffff;strokeColor=#006EAF;" vertex="1" parent="1">
                    <mxGeometry x="450" y="380" width="150" height="30" as="geometry"/>
                </mxCell>
                <mxCell id="41" value="PHY" style="rounded=1;whiteSpace=wrap;html=1;fillColor=#1ba1e2;fontColor=#ffffff;strokeColor=#006EAF;" vertex="1" parent="1">
                    <mxGeometry x="450" y="415" width="150" height="30" as="geometry"/>
                </mxCell>
                <mxCell id="42" value="L2CAP" style="rounded=1;whiteSpace=wrap;html=1;fillColor=#f0a30a;fontColor=#000000;strokeColor=#BD7000;" vertex="1" parent="1">
                    <mxGeometry x="450" y="280" width="150" height="30" as="geometry"/>
                </mxCell>
                <mxCell id="43" value="SMP" style="rounded=1;whiteSpace=wrap;html=1;fillColor=#f0a30a;fontColor=#000000;strokeColor=#BD7000;" vertex="1" parent="1">
                    <mxGeometry x="520" y="200" width="80" height="70" as="geometry"/>
                </mxCell>
            </root>
        </mxGraphModel>
    </diagram>
</mxfile>